# AST/ASF file generated using VICON BodyLanguage
# -----------------------------------------------
:version 1.10
:name VICON
:units
  mass 1.0
  length 0.45
  angle deg
:documentation
   .ast/.asf automatically generated from VICON data using
   VICON BodyBuilder and BodyLanguage model FoxedUp or BRILLIANT.MOD
:root
   order TX TY TZ RX RY RZ
   axis XYZ
   position 0 0 0  
   orientation 0 0 0 
:bonedata
  begin
     id 1 
     name lhipjoint
     direction 0.54267 -0.795011 0.271047 
     length 2.39899 
     axis 0 0 0  XYZ
  end
  begin
     id 2 
     name lfemur
     direction 0.34202 -0.939693 0  
     length 7.49701  
     axis 0 0 20  XYZ
    dof rx ry rz
    limits (-160.0 20.0)
           (-70.0 70.0)
           (-60.0 70.0)
  end
  begin
     id 3 
     name ltibia
     direction 0.34202 -0.939693 0   
     length 8.1668   
     axis 0 0 20   XYZ
    dof rx
    limits (-10.0 170.0)
  end
  begin
     id 4 
     name lfoot
     direction 0.0736283 -0.202292 0.976554   
     length 2.13544   
     axis -90 7.62852e-016 20   XYZ
    dof rx rz
    limits (-45.0 90.0)
           (-70.0 20.0)
  end
  begin
     id 5 
     name ltoes
     direction 1.53557e-011 -4.22024e-011 1   
     length 1.07411   
     axis -90 7.62852e-016 20   XYZ
    dof rx
    limits (-90.0 20.0)
  end
  begin
     id 6 
     name rhipjoint
     direction -0.538061 -0.797813 0.272002   
     length 2.39057  
     axis 0 0 0  XYZ 
  end
  begin
     id 7 
     name rfemur
     direction -0.34202 -0.939693 0   
     length 7.50152   
     axis 0 0 -20   XYZ
    dof rx ry rz
    limits (-160.0 20.0)
           (-70.0 70.0)
           (-70.0 60.0)
  end
  begin
     id 8 
     name rtibia
     direction -0.34202 -0.939693 0   
     length 8.05793   
     axis 0 0 -20   XYZ
    dof rx
    limits (-10.0 170.0)
 end
 begin
     id 9 
     name rfoot
     direction -0.0765195 -0.210236 0.974652   
     length 2.28698  
     axis -90 -7.62852e-016 -20   XYZ
    dof rx rz
    limits (-45.0 90.0)
           (-20.0 70.0)
  end
  begin
     id 10 
     name rtoes
     direction -1.53542e-011 -4.21847e-011 1   
     length 1.14762   
     axis -90 -7.62852e-016 -20   XYZ
    dof rx
    limits (-90.0 20.0)
  end
  begin
     id 11 
     name lowerback
     direction -0.0217239 0.996592 -0.0795765   
     length 2.08176   
     axis 0 0 0   XYZ
    dof rx ry rz
    limits (-20.0 45.0)
           (-30.0 30.0)
           (-30.0 30.0)
  end
  begin
     id 12 
     name upperback
     direction -0.00563773 0.999651 -0.0258155   
     length 2.08898   
     axis 0 0 0   XYZ
    dof rx ry rz
    limits (-20.0 45.0)
           (-30.0 30.0)
           (-30.0 30.0)
  end
  begin
     id 13 
     name thorax
     direction 0.0032706 0.999923 0.0119599   
     length 2.0968   
     axis 0 0 0   XYZ
    dof rx ry rz
    limits (-20.0 45.0)
           (-30.0 30.0)
           (-30.0 30.0)
  end
  begin
     id 14 
     name lowerneck
     direction -0.0285886 0.99568 0.0883427   
     length 1.81272   
     axis 0 0 0   XYZ
    dof rx ry rz
    limits (-20.0 45.0)
           (-30.0 30.0)
           (-30.0 30.0)
  end
  begin
     id 15 
     name upperneck
     direction 0.0807535 0.97985 -0.18268   
     length 1.82518   
     axis 0 0 0   XYZ
    dof rx ry rz
    limits (-20.0 45.0)
           (-30.0 30.0)
           (-30.0 30.0)
  end
  begin
     id 16
     name head
     direction 0.0236605 0.997053 -0.0729767  
     length 1.84443  
     axis 0 0 0   XYZ
    dof rx ry rz
    limits (-20.0 45.0)
           (-30.0 30.0)
           (-30.0 30.0)
  end
  begin
     id 17 
     name lclavicle
     direction 0.918986 0.39378 -0.0200683  
     length 3.27822  
     axis 0 0 0   XYZ
    dof ry rz
    limits (-20.0 10.0)
           (0.0 20.0)
  end
  begin
     id 18 
     name lhumerus
     direction 1 -4.4897e-011 2.09544e-027   
     length 5.5568   
     axis 180 -30 -90   XYZ
    dof rx ry rz
    limits (-60.0 90.0)
           (-90.0 90.0)
           (-90.0 90.0)
  end
  begin
     id 19
     name lradius
     direction 1 -4.48957e-011 -1.27696e-026   
     length 3.63979   
     axis 180 -30 -90   XYZ
    dof rx
    limits (-10.0 170.0)
  end
  begin
     id 20
     name lwrist
     direction 1 -4.49001e-011 -1.49001e-026   
     length 1.8199   
     axis 9.0955e-015 90 90   XYZ
    dof ry
    limits (-180.0 0.0)
 end
  begin
     id 21 
     name lhand
     direction 1 -4.48709e-011 -2.9758e-026   
     length 0.569419   
     axis 1.90115e-014 90 90   XYZ
    dof rx rz
    limits (-90.0 90.0)
           (-45.0 45.0)
  end
  begin
     id 22 
     name lfingers
     direction 1 -4.49175e-011 -5.96505e-026   
     length 0.45908   
     axis 3.80223e-014 90 90   XYZ
    dof rx
    limits (0.0 90.0)
  end
  begin
     id 23
     name lthumb
     direction 0.707107 -6.34864e-011 0.707107   
     length 0.65915   
     axis -90 45 -3.84942e-014   XYZ
    dof rx rz
    limits (-45.0 45.0)
           (-45.0 45.0)
  end
  begin
     id 24 
     name rclavicle
     direction -0.911913 0.396426 -0.106115   
     length 3.46301  
     axis 0 0 0   XYZ 
    dof ry rz
    limits (-10.0 20.0)
           (-20.0 0.0)
  end
  begin
     id 25 
     name rhumerus
     direction -1 -4.48965e-011 7.78516e-028  
     length 5.34339   
     axis 180 30 90   XYZ
    dof rx ry rz
    limits (-90.0 60.0)
           (-90.0 90.0)
           (-90.0 90.0)
  end
  begin
     id 26 
     name rradius
     direction -1 -4.48948e-011 -5.79823e-027   
     length 3.65101   
     axis 180 30 90   XYZ
    dof rx
    limits (-10.0 170.0)
  end
  begin
     id 27 
     name rwrist
     direction -1 -4.48995e-011 -1.48996e-026   
     length 1.8255   
     axis 9.0955e-015 -90 -90   XYZ
    dof ry
    limits (-180.0 0.0)
  end
  begin
     id 28
     name rhand
     direction -1 -4.48957e-011 -2.97937e-026   
     length 0.694249   
     axis 1.90115e-014 -90 -90   XYZ
    dof rx rz
    limits (-90.0 90.0)
           (-45.0 45.0)
  end
  begin
     id 29
     name rfingers
     direction -1 -4.4898e-011 -5.95943e-026   
     length 0.559721   
     axis 3.80223e-014 -90 -90   XYZ
    dof rx
    limits (0.0 90.0)
  end
  begin
     id 30
     name rthumb
     direction -0.707107 -6.34969e-011 0.707107   
     length 0.803651   
     axis -90 -45 3.84942e-014   XYZ
    dof rx rz
    limits (-45.0 45.0)
           (-45.0 45.0)
  end
:hierarchy
  begin
    root lhipjoint rhipjoint lowerback
    lhipjoint lfemur
    lfemur ltibia
    ltibia lfoot
    lfoot ltoes
    rhipjoint rfemur
    rfemur rtibia
    rtibia rfoot
    rfoot rtoes
    lowerback upperback
    upperback thorax
    thorax lowerneck lclavicle rclavicle
    lowerneck upperneck
    upperneck head
    lclavicle lhumerus
    lhumerus lradius
    lradius lwrist
    lwrist lhand lthumb
    lhand lfingers
    rclavicle rhumerus
    rhumerus rradius
    rradius rwrist
    rwrist rhand rthumb
    rhand rfingers
  end

#!OML:ASF H:\Terrain\Walking\May29\JustinRory\rory.ASF
:FULLY-SPECIFIED
:DEGREES
211
root 12.3195 17.8246 -15.6547 -15.6158 -56.2938 24.3126
lowerback 9.04168 -4.52281 -4.38186
upperback 5.6477 -6.45264 1.25586
thorax 1.46539 -3.43505 4.19885
lowerneck -1.02872 13.2128 12.3274
upperneck 18.4183 20.8713 -20.7187
head 9.55598 9.31791 -6.93223
rclavicle -1.13705e-013 1.59028e-015
rhumerus -41.0734 -17.4609 -41.2171
rradius 34.444
rwrist -1.82829
rhand -16.436 32.5604
rfingers 7.12502
rthumb 9.77953 2.80749
lclavicle -1.13705e-013 1.59028e-015
lhumerus -7.09627 -12.2261 63.1264
lradius 50.8253
lwrist 7.76785
lhand -14.103 11.6256
lfingers 7.12502
lthumb 12.0298 41.2599
rfemur -37.4969 1.92933 17.7966
rtibia 37.7744
rfoot -12.8427 -3.28897
rtoes 1.23638
lfemur -9.24271 10.1139 -33.6997
ltibia 30.6263
lfoot -5.65335 -20.0321
ltoes 26.6906
212
root 12.2502 17.8098 -15.5199 -15.4149 -55.3928 24.0042
lowerback 8.56869 -4.82287 -3.88176
upperback 5.89146 -6.80325 1.32221
thorax 1.96366 -3.61539 3.94818
lowerneck -1.30015 13.2741 11.8749
upperneck 18.2228 20.878 -20.3727
head 9.44102 9.31186 -6.70941
rclavicle 3.97569e-014 -4.77083e-015
rhumerus -41.5266 -17.9778 -40.2538
rradius 33.6033
rwrist -0.877125
rhand -17.2568 32.0039
rfingers 7.12502
rthumb 8.98754 2.21538
lclavicle 3.97569e-014 -4.77083e-015
lhumerus -8.16721 -11.9459 64.1149
lradius 51.7281
lwrist 4.8874
lhand -11.0634 9.70531
lfingers 7.12502
lthumb 14.9594 39.145
rfemur -36.3433 3.41083 17.2204
rtibia 35.7574
rfoot -11.8283 -3.80544
rtoes 6.79159
lfemur -8.65872 10.8198 -33.7461
ltibia 30.7442
lfoot -4.19067 -21.1029
ltoes 29.2331
213
root 12.1707 17.7906 -15.3783 -15.9686 -54.1902 24.6464
lowerback 8.12764 -4.97802 -3.92111
upperback 5.92132 -6.9934 1.14925
thorax 2.23769 -3.7124 3.75228
lowerneck -1.32047 13.1792 11.9842
upperneck 18.1619 20.6957 -20.1638
head 9.3726 9.25575 -6.67738
rclavicle -3.81667e-014 -1.11319e-014
rhumerus -42.759 -18.5121 -38.93
rradius 32.9341
rwrist -0.661457
rhand -17.1924 31.4928
rfingers 7.12502
rthumb 9.0497 1.70694
lclavicle -3.81667e-014 -1.11319e-014
lhumerus -9.43435 -12.5674 65.1369
lradius 52.7974
lwrist 2.8058
lhand -9.3647 9.38653
lfingers 7.12502
lthumb 16.5954 38.697
rfemur -35.189 4.49487 16.0249
rtibia 33.8741
rfoot -10.7231 -4.46056
rtoes 11.2078
lfemur -8.10509 11.3182 -34.4267
ltibia 31.0487
lfoot -2.66694 -22.1139
ltoes 31.9135
214
root 12.0892 17.7592 -15.2361 -16.364 -52.9348 25.1381
lowerback 7.91472 -5.11031 -4.00973
upperback 5.7267 -7.16001 1.11225
thorax 2.17321 -3.7886 3.75878
lowerneck -1.42667 13.0156 12.3706
upperneck 18.6113 20.5237 -20.1806
head 9.56302 9.17256 -6.77658
rclavicle 2.70347e-014 -1.74931e-014
rhumerus -44.1868 -18.9552 -37.1346
rradius 32.1633
rwrist -0.378022
rhand -17.1578 31.0343
rfingers 7.12502
rthumb 9.08305 1.24985
lclavicle 2.70347e-014 -1.74931e-014
lhumerus -10.5765 -13.0181 66.5956
lradius 53.3015
lwrist 0.33038
lhand -7.10187 9.23721
lfingers 7.12502
lthumb 18.7728 38.3513
rfemur -34.0926 5.27468 15.0393
rtibia 32.2474
rfoot -9.37788 -5.24478
rtoes 9.36823
lfemur -7.62946 12.0764 -34.9823
ltibia 31.4837
lfoot -1.36094 -23.3305
ltoes 31.7354
215
root 12.0093 17.7226 -15.0907 -16.072 -51.8546 24.6989
lowerback 7.81321 -5.33112 -3.6768
upperback 5.532 -7.42738 1.41339
thorax 2.04887 -3.90939 3.89798
lowerneck -1.59845 12.8768 12.176
upperneck 19.0051 20.374 -20.0496
head 9.66585 9.06837 -6.72423
rclavicle -3.18055e-014 3.18055e-015
rhumerus -45.2619 -19.3227 -35.0962
rradius 31.2501
rwrist 0.35512
rhand -16.8314 30.732
rfingers 7.12502
rthumb 9.39802 0.961542
lclavicle -3.18055e-014 3.18055e-015
lhumerus -11.9487 -12.835 68.2868
lradius 53.741
lwrist -2.52705
lhand -4.42476 8.18831
lfingers 7.12502
lthumb 21.346 37.0326
rfemur -33.0525 6.24199 14.6423
rtibia 31.0655
rfoot -7.18823 -5.84263
rtoes 13.2885
lfemur -7.06031 13.1596 -34.7863
ltibia 31.8891
lfoot 0.232243 -24.6589
ltoes 30.2951
216
root 11.9297 17.6945 -14.9406 -15.9649 -50.7733 24.332
lowerback 7.73748 -5.56291 -3.34345
upperback 5.40737 -7.71172 1.63126
thorax 1.97352 -4.04075 3.95034
lowerneck -1.48957 12.7823 11.8506
upperneck 18.8752 20.2235 -19.905
head 9.51399 9.00279 -6.65047
rclavicle 2.06736e-014 -1.27222e-014
rhumerus -46.3381 -19.085 -33.557
rradius 30.5672
rwrist 0.553123
rhand -16.7435 30.6427
rfingers 7.12502
rthumb 9.48283 0.876079
lclavicle 2.06736e-014 -1.27222e-014
lhumerus -13.2229 -12.8197 69.6498
lradius 54.125
lwrist -4.57734
lhand -2.94375 7.43297
lfingers 7.12502
lthumb 22.7679 36.1094
rfemur -32.2891 7.08354 14.2267
rtibia 30.6679
rfoot -3.14362 -5.60215
rtoes 23.2076
lfemur -6.36907 14.0056 -34.5911
ltibia 32.4115
lfoot 2.40836 -25.6569
ltoes 31.0665
217
root 11.8585 17.7145 -14.7988 -16.0061 -49.7151 24.0183
lowerback 7.74804 -5.72563 -2.87491
upperback 5.36024 -7.8986 1.70777
thorax 1.88174 -4.11841 3.78641
lowerneck -1.30331 12.6436 11.8274
upperneck 18.5914 20.0116 -19.9452
head 9.34027 8.93058 -6.70144
rclavicle 9.54166e-014 -3.18055e-014
rhumerus -47.6927 -19.3061 -31.9385
rradius 29.9788
rwrist 0.692387
rhand -16.362 30.1709
rfingers 7.12502
rthumb 9.85091 0.4213
lclavicle 9.54166e-014 -3.18055e-014
lhumerus -14.3529 -12.9751 70.7782
lradius 54.5378
lwrist -6.35585
lhand 0.981447 7.09814
lfingers 7.12502
lthumb 26.5301 35.2604
rfemur -31.8978 7.88994 13.7321
rtibia 31.1984
rfoot 1.45192 -4.01908
rtoes 35.6746
lfemur -5.78569 14.7273 -34.336
ltibia 33.2822
lfoot 5.27431 -26.2843
ltoes 32.8459
218
root 11.802 17.7146 -14.6609 -16.6493 -48.6674 24.1495
lowerback 8.19842 -5.84061 -2.72789
upperback 5.3715 -8.05191 1.76979
thorax 1.64939 -4.18968 3.82915
lowerneck -1.20864 12.4955 11.8244
upperneck 18.2442 19.8404 -20.3139
head 9.21378 8.8529 -6.86015
rclavicle -4.69132e-014 3.81667e-014
rhumerus -48.8832 -20.0984 -29.8304
rradius 29.1854
rwrist 1.17354
rhand -15.3974 28.9451
rfingers 7.12502
rthumb 10.7814 -0.758226
lclavicle -4.69132e-014 3.81667e-014
lhumerus -15.6069 -12.6242 72.1106
lradius 55.0507
lwrist -8.73299
lhand 5.06393 5.71344
lfingers 7.12502
lthumb 30.431 33.2218
rfemur -31.5729 9.13744 12.7729
rtibia 32.4842
rfoot 0.993424 -8.56301
rtoes 23.9237
lfemur -5.3 15.5621 -34.2459
ltibia 34.7389
lfoot 8.52646 -26.4485
ltoes 34.4106
219
root 11.7603 17.6684 -14.533 -17.1095 -47.8303 24.2108
lowerback 8.85722 -5.88756 -2.66405
upperback 5.28877 -8.11995 1.98145
thorax 1.2329 -4.21842 4.09992
lowerneck -1.06473 12.389 11.9064
upperneck 17.8399 19.7578 -20.8833
head 9.10995 8.81649 -7.09256
rclavicle 3.97569e-014 -3.81667e-014
rhumerus -49.8959 -20.5888 -27.7811
rradius 28.3603
rwrist 1.60297
rhand -15.1518 28.204
rfingers 7.12502
rthumb 11.0184 -1.48681
lclavicle 3.97569e-014 -3.81667e-014
lhumerus -16.9115 -12.2225 73.5746
lradius 55.529
lwrist -10.535
lhand -1.13064 3.04206
lfingers 7.12502
lthumb 24.507 31.494
rfemur -31.4767 10.6061 11.8414
rtibia 34.1692
rfoot 0.429152 -11.2091
rtoes 23.3296
lfemur -5.50924 16.427 -34.0631
ltibia 36.933
lfoot 12.0189 -26.2249
ltoes 36.2313
220
root 11.7277 17.6344 -14.4195 -16.3121 -47.6348 22.9679
lowerback 9.44506 -5.84699 -1.63967
upperback 5.11631 -7.9864 2.50965
thorax 0.656183 -4.1234 4.16298
lowerneck -0.969012 12.3514 12.0943
upperneck 17.7406 19.7902 -21.3265
head 9.13977 8.83158 -7.28328
rclavicle 3.49861e-014 9.54166e-015
rhumerus -50.9359 -21.0335 -25.8456
rradius 27.5891
rwrist 2.24457
rhand -15.4512 27.8919
rfingers 7.12502
rthumb 10.7295 -1.8141
lclavicle 3.49861e-014 9.54166e-015
lhumerus -18.0875 -11.9967 75.0522
lradius 55.7793
lwrist -11.19
lhand 6.18047 4.0744
lfingers 7.12502
lthumb 31.4953 31.3803
rfemur -31.6084 10.9932 12.3625
rtibia 35.8283
rfoot -1.38691 -11.4466
rtoes 26.7386
lfemur -6.59957 17.4692 -32.8076
ltibia 39.7785
lfoot 15.6303 -25.7049
ltoes 37.2222
